<svg xmlns="http://www.w3.org/2000/svg" viewBox="0 0 40 30"><defs><style>.cls-1{fill:#212121;}</style></defs><title>quotes</title><g id="Layer_2" data-name="Layer 2"><g id="Work"><g id="Quotes"><path class="cls-1" d="M19.75,3.49Q17.18,4.82,15,6.17a31.85,31.85,0,0,0-3.8,2.68A16.67,16.67,0,0,0,8.1,12.29,18.19,18.19,0,0,0,6,17H8.37q3.45,0,5,1.72a5.66,5.66,0,0,1,1.5,3.82,7.77,7.77,0,0,1-2,5.06A6.84,6.84,0,0,1,7.28,30q-3.72,0-5.5-2.1A8.28,8.28,0,0,1,0,22.36a17.25,17.25,0,0,1,1.92-8.14A26.42,26.42,0,0,1,6.73,7.69,31.55,31.55,0,0,1,12.67,3.1Q15.76,1.27,18.11,0ZM40,3.49q-2.57,1.33-4.79,2.68a31.85,31.85,0,0,0-3.8,2.68,16.67,16.67,0,0,0-3.06,3.43A18.19,18.19,0,0,0,26.27,17h2.35q3.45,0,5,1.72a5.66,5.66,0,0,1,1.5,3.82,7.77,7.77,0,0,1-2,5.06A6.84,6.84,0,0,1,27.52,30Q23.8,30,22,27.9a8.28,8.28,0,0,1-1.78-5.54,17.25,17.25,0,0,1,1.92-8.14A26.42,26.42,0,0,1,27,7.69,31.55,31.55,0,0,1,32.91,3.1Q36,1.27,38.36,0Z"/></g></g></g></svg>